<?xml version="1.0" encoding="UTF-8"?>
<svg width="70px" height="70px" viewBox="0 0 70 70" version="1.1" xmlns="http://www.w3.org/2000/svg" xmlns:xlink="http://www.w3.org/1999/xlink">
    <!-- Generator: Sketch 48.2 (47327) - http://www.bohemiancoding.com/sketch -->
    <title>meet copy</title>
    <desc>Created with Sketch.</desc>
    <defs>
        <rect id="path-1" x="0" y="0" width="70" height="70" rx="35"></rect>
        <polygon id="path-3" points="0.468184852 0.520205112 25.6225556 0.520205112 25.6225556 44.3855475 0.468184852 44.3855475"></polygon>
        <polygon id="path-5" points="0.57827425 0.91548362 24.9015603 0.91548362 24.9015603 26.6313285 0.57827425 26.6313285"></polygon>
        <polygon id="path-7" points="0 0.503458924 35.1749123 0.503458924 35.1749123 27.6244234 0 27.6244234"></polygon>
        <polygon id="path-9" points="0.000585283981 0.543007739 36.6605 0.543007739 36.6605 35.8320333 0.000585283981 35.8320333"></polygon>
    </defs>
    <g id="altogether" stroke="none" stroke-width="1" fill="none" fill-rule="evenodd" transform="translate(-153.000000, -642.000000)">
        <g id="meet-copy" transform="translate(153.000000, 642.000000)">
            <mask id="mask-2" fill="white">
                <use xlink:href="#path-1"></use>
            </mask>
            <use id="Rectangle-Copy" fill="#DBF2FF" xlink:href="#path-1"></use>
            <g id="Group-11" mask="url(#mask-2)">
                <g transform="translate(-279.000000, -38.000000)" id="Page-1">
                    <g transform="translate(280.000000, 46.732683)">
                        <g id="Group-3" transform="translate(6.340792, 5.837968)">
                            <mask id="mask-4" fill="white">
                                <use xlink:href="#path-3"></use>
                            </mask>
                            <g id="Clip-2"></g>
                            <path d="M9.86563904,2.88366561 C9.86563904,2.88366561 3.38788543,8.7844071 0.689244144,13.0048386 C1.70377094,14.3008966 1.88258129,14.5367741 1.88258129,14.5367741 C1.88258129,14.5367741 0.440685078,20.9397063 0.468584565,25.617943 C0.496484052,30.2949116 3.55655051,36.9083581 3.55655051,36.9083581 C3.55655051,36.9083581 1.55286008,38.4745339 1.50593822,40.4731517 C3.12791294,41.9289976 7.15431617,44.4069793 10.7064281,44.3854206 C14.2598082,44.3638619 18.6210053,41.0222643 23.9041536,23.5825486 C29.1873019,6.14283295 21.6633176,-4.47038552 9.86563904,2.88366561" id="Fill-1" fill="#69B4E1" mask="url(#mask-4)"></path>
                        </g>
                        <path d="M11.3336593,34.0536065 C14.5560501,34.4771715 17.5894852,34.2527074 17.5894852,34.2527074 L15.651739,25.6672744 C15.651739,25.6672744 11.1320221,32.3821736 11.3336593,34.0536065" id="Fill-4" fill="#268AC7"></path>
                        <path d="M20.3119679,15.8689746 C20.3119679,15.8689746 18.1763889,18.7908117 17.752824,20.193395 C20.5174095,21.7177216 25.0713667,23.7670657 25.0713667,23.7670657 L28.2049864,20.6537366 C28.2049864,20.6537366 24.9407464,17.7090725 20.3119679,15.8689746" id="Fill-6" fill="#7F5120"></path>
                        <path d="M31.1173123,24.9649682 C31.1173123,24.9649682 33.8476576,25.5052037 34.9623689,26.2534172 C35.418906,28.2938843 31.8528443,33.3779317 31.8528443,33.3779317 C31.8528443,33.3779317 30.034305,33.9016811 29.0096329,33.2955014 C28.6849843,30.9544808 31.1173123,24.9649682 31.1173123,24.9649682" id="Fill-8" fill="#69B4E1"></path>
                        <g id="Group-12" transform="translate(6.340792, 23.592187)">
                            <mask id="mask-6" fill="white">
                                <use xlink:href="#path-5"></use>
                            </mask>
                            <g id="Clip-11"></g>
                            <path d="M24.9015603,1.91986515 L23.7272455,0.91548362 C23.7272455,1.04864026 23.747536,11.8394009 9.22712124,11.9269039 C3.77150337,11.959876 0.573207641,9.33351973 0.578280275,9.44511768 C1.12739291,13.8988903 3.55718459,19.1541391 3.55718459,19.1541391 C3.55718459,19.1541391 1.552226,20.7203149 1.5065723,22.7189327 C3.12727886,24.1747786 7.15368209,26.6527603 10.7070622,26.6312017 C14.2591742,26.609643 18.6203712,23.2680453 23.9035195,5.82832964 C24.3105984,4.48281348 24.6428559,3.17914654 24.9015603,1.91986515" id="Fill-10" fill="#268AC7" mask="url(#mask-6)"></path>
                        </g>
                        <g id="Group-15" transform="translate(0.000000, 0.765334)">
                            <mask id="mask-8" fill="white">
                                <use xlink:href="#path-7"></use>
                            </mask>
                            <g id="Clip-14"></g>
                            <path d="M30.5443583,27.6244234 C30.5443583,27.6244234 28.3846844,20.236132 28.3212765,13.8395405 C28.3212765,13.8395405 26.6143351,15.6504708 25.8711943,15.2408557 C25.1293215,14.8312405 27.1875428,12.627181 27.1875428,12.627181 C27.1875428,12.627181 21.3730361,15.4741968 19.707944,14.3594855 C18.04412,13.2447742 23.8649675,11.5822184 23.8649675,11.5822184 C23.8649675,11.5822184 13.1959501,14.4888377 12.4185689,13.2790145 C11.6424559,12.0691912 14.5642931,10.6602672 14.5642931,10.6602672 C14.5642931,10.6602672 0.0172469556,8.794806 -0.000507263399,5.98203045 C-0.0169933239,3.1692549 19.0218702,3.55857956 19.0218702,3.55857956 C19.0218702,3.55857956 14.1534097,1.45597277 14.8001706,0.622792639 C15.4456632,-0.210387495 25.8902166,3.57633378 25.8902166,3.57633378 C25.8902166,3.57633378 24.5193373,2.22194051 25.1699026,1.86305165 C25.8179316,1.5041628 33.2506086,6.49183017 35.1756732,11.5137378 C35.0957792,18.028268 30.5443583,27.6244234 30.5443583,27.6244234" id="Fill-13" fill="#7F5120" mask="url(#mask-8)"></path>
                        </g>
                        <path d="M12.468788,14.8214756 C12.5803859,15.7624492 12.9950738,19.8370425 12.9950738,19.8370425 C8.19889833,19.8915733 7.66119912,20.3392333 6.9865388,21.1483184 C6.22691186,19.6823272 5.33286012,17.272826 5.33286012,17.272826 C5.33286012,17.272826 6.12292286,15.1258337 12.468788,14.8214756" id="Fill-16" fill="#7F5120"></path>
                        <path d="M22.7100556,28.360209 C22.4082339,28.360209 22.1622111,28.1078454 22.1622111,27.7958784 C22.1622111,27.1909668 21.6853835,26.6989213 21.096958,26.6989213 C20.5098006,26.6989213 20.0317048,27.1909668 20.0317048,27.7958784 C20.0317048,28.1078454 19.7869502,28.360209 19.4851285,28.360209 C19.1820386,28.360209 18.937284,28.1078454 18.937284,27.7958784 C18.937284,26.568301 19.9061571,25.5702603 21.096958,25.5702603 C22.289027,25.5702603 23.2579,26.568301 23.2579,27.7958784 C23.2579,28.1078454 23.0118773,28.360209 22.7100556,28.360209" id="Fill-18" fill="#213049"></path>
                        <path d="M11.760141,27.774827 C11.4583193,27.774827 11.2122965,27.5224634 11.2122965,27.2104965 C11.2122965,26.6055849 10.735469,26.1135394 10.1470434,26.1135394 C9.55988603,26.1135394 9.08305843,26.6055849 9.08305843,27.2104965 C9.08305843,27.5224634 8.83703568,27.774827 8.53521396,27.774827 C8.23212408,27.774827 7.98736949,27.5224634 7.98736949,27.2104965 C7.98736949,25.982919 8.95624258,24.9848783 10.1470434,24.9848783 C11.3391124,24.9848783 12.3079855,25.982919 12.3079855,27.2104965 C12.3079855,27.5224634 12.0619627,27.774827 11.760141,27.774827" id="Fill-20" fill="#213049"></path>
                        <path d="M10.438593,39.6964046 C10.1266261,38.6527101 9.74871483,37.4149874 9.74871483,37.4149874 C11.3998572,37.4809317 22.4455177,37.3490432 22.7536802,37.3617248 C23.0605746,37.3744064 23.3002565,37.6419878 23.287575,37.9602956 C23.1937312,40.2975117 20.8590514,42.7577392 18.5928522,42.6664318 C18.5928522,42.6664318 14.4573873,41.7546258 12.7669321,42.0374252 C11.3465945,42.2745708 10.8646943,41.1205466 10.438593,39.6964046" id="Fill-22" fill="#213049"></path>
                        <path d="M10.7211388,38.2328229 L11.0800276,39.1725283 C11.0800276,39.1725283 14.1616528,39.9055239 17.8951114,39.7051549 C21.62857,39.5047858 22.3400069,39.0520533 22.3400069,39.0520533 C22.3400069,39.0520533 22.5860297,38.3165213 22.3742472,38.1757557 C22.1637329,38.0362583 10.7211388,38.2328229 10.7211388,38.2328229" id="Fill-24" fill="#FFFFFF"></path>
                    </g>
                    <g transform="translate(309.000000, 47.000000)">
                        <path d="M4.609975,29.7651583 C4.609975,29.7651583 2.23564167,27.518325 0.770808333,29.464825 C-0.694025,31.411325 0.665975,37.8429917 5.05905833,35.8724083 C4.99105833,30.9254083 4.609975,29.7651583 4.609975,29.7651583" id="Fill-1" fill="#E08A26"></path>
                        <path d="M30.7333083,35.4724833 L31.0053083,29.4049 C31.0053083,29.4049 33.4178917,26.5574 34.891225,28.9714 C36.365975,31.3854 34.5738917,36.08165 30.7333083,35.4724833" id="Fill-3" fill="#E08A26"></path>
                        <path d="M4.86256667,29.88345 C4.87106667,33.9903667 5.00423333,37.7190333 5.57798333,40.1188667 C6.15173333,42.5187 13.4348167,50.7835333 18.29965,50.7736167 C23.1659,50.7637 29.5324,42.7892833 30.2209,39.2490333 C30.9079833,35.7087833 30.9632333,31.28595 30.9604,29.7687 C30.9575667,28.2528667 29.6060667,15.9321167 24.2949833,14.7421167 C18.9853167,13.5521167 14.1190667,13.43595 10.5844833,15.21245 C7.04848333,16.98895 4.85123333,24.2592833 4.86256667,29.88345" id="Fill-8" fill="#F89C23"></path>
                        <path d="M17.065875,40.3538917 C17.065875,40.3538917 21.447625,40.5423083 20.7095417,39.5166417 C19.972875,38.490975 17.9895417,35.868725 17.9895417,35.868725 C17.9895417,35.868725 15.9339583,38.792725 17.065875,40.3538917" id="Fill-10" fill="#E08A26"></path>
                        <path d="M12.7868333,36.6012833 C12.6749167,37.9343667 11.3163333,38.9090333 9.75516667,38.7772833 C8.19258333,38.6455333 7.01675,37.45695 7.12866667,36.1238667 C7.242,34.7907833 8.59916667,33.8147 10.16175,33.94645 C11.7243333,34.0782 12.9001667,35.2667833 12.7868333,36.6012833" id="Fill-12" fill="#FABC67"></path>
                        <path d="M28.6304083,36.5671417 C28.878325,37.8988083 27.8484083,39.2063917 26.332575,39.4868917 C24.8167417,39.7688083 23.3859083,38.9173917 23.1394083,37.5871417 C22.8929083,36.2540583 23.9214083,34.946475 25.4386583,34.665975 C26.9544917,34.3840583 28.3839083,35.235475 28.6304083,36.5671417" id="Fill-14" fill="#FABC67"></path>
                        <path d="M13.3440083,31.8104 C13.345425,32.7099833 12.6172583,33.4409833 11.717675,33.4424 C10.8180917,33.4438167 10.0885083,32.7170667 10.085675,31.8174833 C10.0842583,30.9164833 10.812425,30.1869 11.7120083,30.1840667 C12.6115917,30.18265 13.3425917,30.9108167 13.3440083,31.8104" id="Fill-16" fill="#175E87"></path>
                        <path d="M26.5005917,32.2998583 C26.5020083,33.278775 25.7100917,34.0721083 24.7325917,34.0749417 C23.753675,34.0763583 22.9603417,33.2858583 22.9575083,32.3069417 C22.9560917,31.328025 23.7465917,30.5346917 24.7255083,30.5318583 C25.704425,30.5304417 26.499175,31.3209417 26.5005917,32.2998583" id="Fill-18" fill="#175E87"></path>
                        <path d="M12.1211417,41.7178583 C12.1211417,41.7178583 14.9913083,43.466025 18.167475,43.8853583 C21.3436417,44.3061083 24.2081417,42.926275 24.2081417,42.926275 C24.2081417,42.926275 23.5366417,43.3739417 22.702225,44.0043583 C21.6510583,44.796275 20.220225,45.8091917 18.171725,45.8134417 C15.7308083,45.8176917 14.7660583,45.0201083 13.9018917,43.419275 C13.4003917,42.4913583 12.1211417,41.7178583 12.1211417,41.7178583" id="Fill-20" fill="#69B4E1"></path>
                        <path d="M20.4147333,23.786825 C20.4147333,23.786825 20.5804833,23.6919083 20.82415,23.5799917 C21.0777333,23.4624083 21.43615,23.306575 21.8753167,23.1521583 C22.75365,22.8461583 23.9450667,22.550075 25.1464,22.3531583 C25.7584,22.2511583 26.3392333,22.1831583 26.9583167,22.1817417 C27.5533167,22.184575 28.11715,22.2539917 28.59315,22.392825 C29.5749,22.6591583 30.0268167,23.298075 30.0367333,23.349075 C30.1288167,23.4992417 30.0834833,23.6961583 29.9333167,23.7896583 C29.78315,23.8831583 29.5848167,23.8364083 29.4927333,23.6862417 C29.54515,23.7344083 29.18815,23.3476583 28.3934,23.213075 C28.0024,23.140825 27.5207333,23.128075 27.0022333,23.1776583 C26.5064,23.225825 25.9128167,23.3561583 25.3574833,23.468075 C24.2227333,23.7117417 23.1149,24.0489083 22.3229833,24.369075 C21.9249,24.522075 21.6004833,24.6609083 21.3837333,24.7657417 C21.18115,24.8691583 21.0649833,24.9286583 21.0649833,24.9286583 L21.0380667,24.942825 C20.7150667,25.108575 20.3198167,24.981075 20.1540667,24.658075 C19.9925667,24.343575 20.11015,23.9596583 20.4147333,23.786825" id="Fill-29" fill="#175F87"></path>
                        <g id="Group-24" transform="translate(0.000000, 0.873942)">
                            <mask id="mask-10" fill="white">
                                <use xlink:href="#path-9"></use>
                            </mask>
                            <g id="Clip-23"></g>
                            <path d="M5.08540833,35.8320333 C5.244075,35.6308667 -0.180341667,27.0600333 0.00524166667,24.7225333 C0.189408333,22.3836167 4.99474167,14.2222 8.13124167,14.7378667 C11.1572417,8.42803333 22.3956583,-4.38996667 31.4297417,2.5432 C40.463825,9.47636667 35.4587417,18.9028667 33.5519083,21.0547833 C34.866575,22.94745 34.883575,27.8930333 30.875825,32.6941167 C30.0074083,26.1165333 29.7509917,24.1587 29.7509917,24.1587 C29.7509917,24.1587 25.9614083,25.5555333 22.8546583,20.38045 C19.749325,15.20395 15.618325,12.6766167 9.16540833,15.4065333 C7.12115833,20.47395 5.36590833,27.7910333 5.36590833,27.7910333 L5.08540833,35.8320333 Z" id="Fill-22" fill="#268AC7" mask="url(#mask-10)"></path>
                        </g>
                        <path d="M24.2476667,42.616875 C24.4304167,42.540375 24.6400833,42.6282083 24.7165833,42.8109583 C24.7916667,42.9937083 24.70525,43.203375 24.5225,43.279875 C23.1653333,43.840875 21.7543333,44.2970417 20.32775,44.6327917 C19.46925,44.835375 18.4634167,45.026625 17.4278333,45.0252083 C16.6529167,45.022375 15.8624167,44.911875 15.1045,44.6157917 C13.6580833,44.0519583 12.5686667,42.8945417 11.7824167,41.9510417 C11.6549167,41.7994583 11.6761667,41.5727917 11.82775,41.4452917 C11.98075,41.3177917 12.206,41.3404583 12.3335,41.4920417" id="Fill-25" fill="#145F88"></path>
                        <path d="M27.9294417,35.8120583 C26.126025,36.875975 21.680525,35.7993083 21.2399417,35.2921417 C20.5769417,34.415225 19.861525,30.8636417 19.912525,29.4753083 C20.813525,29.1636417 22.6098583,28.694725 25.3383583,28.6933083 C27.4803583,28.6805583 29.1151917,28.732975 30.2003583,28.7853917 C29.9099417,31.3708083 29.113775,35.112225 27.9294417,35.8120583 Z M14.8876083,35.371475 C14.4781917,35.9098083 9.903775,37.0346417 8.02810833,35.9253917 C6.67944167,35.129225 5.94419167,30.976975 5.69485833,28.8038083 C6.76444167,28.7513917 8.43469167,28.6933083 10.651775,28.6933083 L10.7481083,28.6933083 C13.5474417,28.694725 15.365025,29.1891417 16.240525,29.4993917 C16.2731083,30.9500583 15.5548583,34.4903083 14.8876083,35.371475 Z M31.8266917,27.627975 C31.731775,27.6208917 29.4608583,27.4353083 25.437525,27.4353083 L25.3383583,27.4353083 C20.9424417,27.4395583 18.7296083,28.584225 18.637525,28.6323917 L18.892525,29.115475 C18.875525,29.2656417 18.8698583,29.4398917 18.8698583,29.6283083 C18.6148583,29.578725 18.3216083,29.536225 17.995775,29.536225 C17.6274417,29.536225 17.2931083,29.5886417 17.0211083,29.646725 C17.0211083,29.5773083 17.022525,29.5036417 17.0211083,29.438475 L17.150025,29.1933917 L17.447525,28.6323917 C17.3554417,28.584225 15.144025,27.4395583 10.7481083,27.4353083 C6.65819167,27.4126417 4.35469167,27.6208917 4.25835833,27.627975 L4.36319167,28.881725 C4.36885833,28.881725 4.565775,28.8661417 4.90719167,28.8448917 C5.10835833,30.6511417 5.811025,35.5301417 7.62860833,36.6025583 C8.32985833,37.016225 9.34419167,37.181975 10.418025,37.181975 C12.5996917,37.181975 15.0193583,36.4991417 15.5151917,35.8460583 C16.1526917,35.0045583 16.750525,32.566475 16.9516917,30.7403917 C17.1613583,30.6808917 17.5551917,30.5845583 17.995775,30.5845583 C18.374025,30.5845583 18.7111917,30.6553917 18.9378583,30.713475 C19.1461083,32.604725 19.7921083,35.1178917 20.4041083,35.9253917 C20.9126917,36.5968917 23.3989417,37.3023917 25.6344417,37.3023917 C26.7224417,37.3023917 27.7509417,37.135225 28.4621083,36.7158917 C30.333525,35.6108917 31.047525,30.6568083 31.2486917,28.8448917 C31.5504417,28.8661417 31.7161917,28.8803083 31.7218583,28.881725 L31.8266917,27.627975 Z" id="Fill-27" fill="#093247"></path>
                        <path d="M15.1647083,24.3645417 C15.1647083,24.3645417 15.0457083,24.3107083 14.838875,24.2172083 C14.6164583,24.1237083 14.286375,24.0004583 13.8812083,23.8687083 C13.075125,23.5867917 11.9517083,23.3062917 10.805625,23.117875 C10.2460417,23.0342917 9.645375,22.9337083 9.148125,22.9082083 C8.62820833,22.8855417 8.14795833,22.922375 7.76120833,23.0130417 C6.97354167,23.1887083 6.636375,23.5924583 6.687375,23.5414583 C6.60095833,23.695875 6.406875,23.751125 6.25104167,23.666125 C6.096625,23.581125 6.041375,23.385625 6.126375,23.2312083 C6.134875,23.1802083 6.55420833,22.5200417 7.520375,22.204125 C7.98929167,22.042625 8.548875,21.944875 9.143875,21.9137083 C9.76154167,21.8825417 10.3452083,21.9222083 10.9614583,21.9930417 C12.1712917,22.131875 13.3754583,22.3684583 14.2679583,22.6305417 C14.7127917,22.7637083 15.0797083,22.901125 15.3389583,23.0059583 C15.586875,23.105125 15.7582917,23.1915417 15.7582917,23.1915417 C16.0827083,23.3544583 16.2130417,23.7497083 16.050125,24.074125 C15.8914583,24.388625 15.5132083,24.5217917 15.1944583,24.3772917 L15.1647083,24.3645417 Z" id="Fill-31" fill="#175F87"></path>
                    </g>
                </g>
            </g>
        </g>
    </g>
</svg>
