<svg xmlns:xlink="http://www.w3.org/1999/xlink" viewBox="0 0 70 70"><defs><rect id="a" width="70" height="70" x="0" y="0" rx="35"/><path id="c" d="M.468.52h25.155v43.866H.468z"/><path id="e" d="M.578.915h24.324v25.716H.578z"/><path id="g" d="M0 .503h35.175v27.121H0z"/><path id="i" d="M.001.543H36.66v35.289H.001z"/></defs><g fill="none" fill-rule="evenodd"><mask id="b" fill="#fff"><use xlink:href="#a"/></mask><use fill="#DBF2FF" xlink:href="#a"/><g mask="url(#b)"><g transform="translate(7.34 14.571)"><mask id="d" fill="#fff"><use xlink:href="#c"/></mask><path fill="#69B4E1" d="M9.866 2.884s-6.478 5.9-9.177 10.12a192.512 192.512 0 011.194 1.533S.44 20.94.469 25.617c.027 4.678 3.088 11.291 3.088 11.291s-2.004 1.567-2.051 3.565c1.622 1.456 5.648 3.934 9.2 3.912 3.554-.021 7.915-3.363 13.198-20.802 5.283-17.44-2.24-28.053-14.038-20.7" mask="url(#d)"/></g><path fill="#268AC7" d="M12.334 42.787c3.222.423 6.255.199 6.255.199L16.652 34.4s-4.52 6.715-4.318 8.387"/><path fill="#7F5120" d="M21.312 24.602s-2.136 2.922-2.56 4.324c2.765 1.525 7.32 3.574 7.32 3.574l3.133-3.113s-3.264-2.945-7.893-4.785"/><path fill="#69B4E1" d="M32.117 33.698s2.73.54 3.845 1.288c.457 2.04-3.11 7.125-3.11 7.125s-1.818.524-2.842-.082c-.325-2.342 2.107-8.331 2.107-8.331"/><g transform="translate(7.34 32.325)"><mask id="f" fill="#fff"><use xlink:href="#e"/></mask><path fill="#268AC7" d="M24.902 1.92L23.727.915c0 .134.02 10.924-14.5 11.012C3.772 11.96.573 9.334.578 9.445c.55 4.454 2.98 9.71 2.98 9.71s-2.006 1.565-2.051 3.564c1.62 1.456 5.647 3.934 9.2 3.912 3.552-.021 7.913-3.363 13.197-20.803.407-1.345.739-2.649.998-3.908" mask="url(#f)"/></g><g transform="translate(1 9.498)"><mask id="h" fill="#fff"><use xlink:href="#g"/></mask><path fill="#7F5120" d="M30.544 27.624s-2.16-7.388-2.223-13.784c0 0-1.707 1.81-2.45 1.4-.742-.409 1.317-2.613 1.317-2.613s-5.815 2.847-7.48 1.732c-1.664-1.114 4.157-2.777 4.157-2.777S13.196 14.49 12.419 13.28c-.777-1.21 2.145-2.619 2.145-2.619S.017 8.795 0 5.982c-.016-2.813 19.023-2.423 19.023-2.423S14.153 1.456 14.8.623c.646-.833 11.09 2.953 11.09 2.953s-1.37-1.354-.72-1.713c.648-.359 8.08 4.629 10.006 9.65-.08 6.515-4.632 16.111-4.632 16.111" mask="url(#h)"/></g><path fill="#7F5120" d="M13.469 23.554c.111.941.526 5.016.526 5.016-4.796.055-5.334.502-6.008 1.311-.76-1.466-1.654-3.875-1.654-3.875s.79-2.147 7.136-2.452"/><path fill="#213049" d="M23.71 37.093a.557.557 0 01-.548-.564c0-.605-.477-1.097-1.065-1.097-.587 0-1.065.492-1.065 1.097a.556.556 0 01-.547.564.556.556 0 01-.548-.564c0-1.228.97-2.226 2.16-2.226 1.192 0 2.16.998 2.16 2.226a.557.557 0 01-.547.564m-10.95-.585a.557.557 0 01-.548-.565c0-.604-.477-1.096-1.065-1.096-.587 0-1.064.492-1.064 1.096a.557.557 0 01-.548.565.556.556 0 01-.548-.565c0-1.227.97-2.225 2.16-2.225 1.192 0 2.161.998 2.161 2.225a.557.557 0 01-.548.565m-1.32 11.921c-.312-1.043-.69-2.281-.69-2.281 1.65.066 12.697-.066 13.005-.053.307.012.546.28.534.598-.094 2.338-2.429 4.798-4.695 4.706 0 0-4.136-.911-5.826-.629-1.42.238-1.902-.916-2.328-2.34"/><path fill="#FFF" d="M11.721 46.966l.359.94s3.082.733 6.815.532c3.734-.2 4.445-.653 4.445-.653s.246-.735.034-.876c-.21-.14-11.653.057-11.653.057"/><path fill="#E08A26" d="M34.61 38.765s-2.374-2.247-3.84-.3c-1.464 1.946-.104 8.378 4.29 6.407-.069-4.947-.45-6.107-.45-6.107m26.123 5.707l.272-6.067s2.413-2.848 3.886-.434c1.475 2.414-.317 7.11-4.158 6.501"/><path fill="#F89C23" d="M34.863 38.883c.008 4.107.141 7.836.715 10.236.574 2.4 7.857 10.665 12.722 10.655 4.866-.01 11.232-7.985 11.92-11.525.688-3.54.743-7.963.74-9.48-.002-1.516-1.354-13.837-6.665-15.027-5.31-1.19-10.176-1.306-13.71.47-3.538 1.778-5.735 9.048-5.723 14.671"/><path fill="#E08A26" d="M47.066 49.354s4.382.188 3.644-.837a293.094 293.094 0 00-2.72-3.648s-2.056 2.924-.924 4.485"/><path fill="#FABC67" d="M42.787 45.601c-.112 1.333-1.47 2.308-3.032 2.176-1.562-.131-2.738-1.32-2.626-2.653.113-1.333 1.47-2.31 3.033-2.178 1.562.132 2.738 1.32 2.625 2.655m15.843-.034c.248 1.332-.782 2.64-2.297 2.92-1.516.282-2.947-.57-3.194-1.9-.246-1.333.782-2.64 2.3-2.921 1.515-.282 2.945.57 3.191 1.901"/><path fill="#175E87" d="M43.344 40.81a1.63 1.63 0 11-3.259.006 1.63 1.63 0 013.259-.006m13.157.49a1.773 1.773 0 01-3.543.007A1.772 1.772 0 0156.5 41.3"/><path fill="#69B4E1" d="M42.121 50.718s2.87 1.748 6.046 2.167c3.177.421 6.041-.959 6.041-.959s-.671.448-1.506 1.078c-1.05.792-2.482 1.805-4.53 1.81-2.441.004-3.406-.794-4.27-2.395-.502-.928-1.78-1.701-1.78-1.701"/><path fill="#175F87" d="M50.415 32.787s.165-.095.41-.207c.253-.118.611-.273 1.05-.428.879-.306 2.07-.602 3.271-.799.612-.102 1.193-.17 1.812-.171.595.003 1.16.072 1.635.21.982.267 1.434.906 1.444.957a.32.32 0 11-.544.337c.052.048-.305-.338-1.1-.473a5.163 5.163 0 00-1.39-.035c-.497.048-1.09.178-1.646.29-1.134.244-2.242.58-3.034.901-.398.153-.723.292-.94.397l-.318.163-.027.014a.657.657 0 01-.623-1.156"/><g transform="translate(30 9.874)"><mask id="j" fill="#fff"><use xlink:href="#i"/></mask><path fill="#268AC7" d="M5.085 35.832c.16-.201-5.265-8.772-5.08-11.11.184-2.338 4.99-10.5 8.126-9.984C11.157 8.428 22.396-4.39 31.43 2.543c9.034 6.933 4.029 16.36 2.122 18.512 1.315 1.892 1.332 6.838-2.676 11.64-.869-6.578-1.125-8.536-1.125-8.536s-3.79 1.397-6.896-3.779-7.237-7.703-13.69-4.973c-2.044 5.067-3.8 12.384-3.8 12.384l-.28 8.041z" mask="url(#j)"/></g><path fill="#145F88" d="M54.248 51.617a.359.359 0 01.274.663 27.52 27.52 0 01-4.194 1.353c-.859.202-1.865.394-2.9.392-.775-.003-1.566-.113-2.324-.41-1.446-.563-2.535-1.72-3.322-2.664a.36.36 0 11.552-.459"/><path fill="#093247" d="M57.93 44.812c-1.804 1.064-6.25-.013-6.69-.52-.663-.877-1.378-4.428-1.327-5.817.9-.311 2.697-.78 5.425-.782 2.142-.012 3.777.04 4.862.092-.29 2.586-1.086 6.327-2.27 7.027zm-13.042-.44c-.41.538-4.984 1.663-6.86.553-1.349-.796-2.084-4.948-2.333-7.121 1.07-.053 2.74-.11 4.957-.11h.096c2.8 0 4.617.495 5.493.805.032 1.451-.686 4.991-1.353 5.872zm16.939-7.744c-.095-.007-2.366-.193-6.39-.193h-.099c-4.396.005-6.608 1.15-6.7 1.197l.255.483c-.017.15-.023.325-.023.513a4.536 4.536 0 00-.874-.092c-.369 0-.703.053-.975.11 0-.069.002-.142 0-.208l.129-.245.298-.56c-.093-.049-2.304-1.193-6.7-1.198-4.09-.022-6.393.186-6.49.193l.105 1.254c.006 0 .203-.016.544-.037.201 1.806.904 6.685 2.722 7.758.7.413 1.715.579 2.789.579 2.182 0 4.601-.683 5.097-1.336.638-.841 1.236-3.28 1.437-5.106.21-.06.603-.155 1.044-.155.378 0 .715.07.942.128.208 1.892.854 4.405 1.466 5.212.509.672 2.995 1.377 5.23 1.377 1.088 0 2.117-.167 2.828-.586 1.872-1.105 2.586-6.06 2.787-7.871.301.021.467.035.473.037l.105-1.254z"/><path fill="#175F87" d="M45.165 33.365l-.326-.148a12.803 12.803 0 00-.958-.348c-.806-.282-1.93-.563-3.075-.751-.56-.084-1.16-.184-1.658-.21a5.24 5.24 0 00-1.387.105c-.787.176-1.125.58-1.074.528a.32.32 0 01-.561-.31c.009-.05.428-.711 1.394-1.027a6.04 6.04 0 011.624-.29 10.84 10.84 0 011.817.079c1.21.139 2.414.375 3.307.638.445.133.812.27 1.071.375.248.1.42.186.42.186a.657.657 0 01-.565 1.185l-.03-.012z"/></g></g></svg>