<svg width="80" height="80" xmlns="http://www.w3.org/2000/svg"><g fill="none" fill-rule="evenodd"><path d="M69.689 31.219l-.113-.056a4.425 4.425 0 0 0-4.818.621c-.362.31-.669.679-.908 1.091L59.92 39.7a6.298 6.298 0 0 1-3.003 1.914l-17.473 5.103a2.751 2.751 0 0 1-3.402-1.814 2.717 2.717 0 0 1 1.903-3.421l7.886-2.36a2.772 2.772 0 0 0-1.333-5.382l-.149.04-16.96 4.96a17.9 17.9 0 0 0-2.463.85 17.371 17.371 0 0 0-9.483 9.94L8.198 69.283l15.392 2.694 2.126-6.758a6.058 6.058 0 0 1 4.106-4.718l33.46-10.716a3.513 3.513 0 0 0 1.984-1.595l6.192-11.243a4.176 4.176 0 0 0-1.77-5.728z" fill="#3DA1DB"/><path d="M44.359 33.779l.149-.04a2.772 2.772 0 1 1 1.333 5.38l-7.886 2.36a2.717 2.717 0 0 0-1.903 3.422 2.751 2.751 0 0 0 3.402 1.814l17.473-5.103a6.298 6.298 0 0 0 3.002-1.914l3.921-6.82c.24-.413.546-.782.908-1.092.085-.776.129-1.557.13-2.339a21.262 21.262 0 1 0-39.961 10.138 17.9 17.9 0 0 1 2.462-.85l16.97-4.956z" fill="#FF9D1B"/></g></svg>